HIERARCHY
ROOT Hips
{
  OFFSET 3.13213 102.699 205.733
  CHANNELS 6 Xposition Yposition Zposition Zrotation Xrotation Yrotation
  JOINT RightUpLeg
  {
    OFFSET -8.9458 -8.66707 0.101652
    CHANNELS 3 Zrotation Xrotation Yrotation
    JOINT RightLeg
    {
      OFFSET 0 -44.4227 1.3727
      CHANNELS 3 Zrotation Xrotation Yrotation
      JOINT RightFoot
      {
        OFFSET 0.253549 -42.0924 -1.46059
        CHANNELS 3 Zrotation Xrotation Yrotation
        JOINT RightToes
        {
          OFFSET 0.04 -4.41509 8.4991
          CHANNELS 3 Zrotation Xrotation Yrotation
          End Site
          {
            OFFSET -0.08 -0.137448 9.77979
          }
        }
      }
    }
  }
  JOINT Spine
  {
    OFFSET 0 11.8905 0
    CHANNELS 3 Zrotation Xrotation Yrotation
    JOINT Spine1
    {
      OFFSET 0 25.6574 0.127663
      CHANNELS 3 Zrotation Xrotation Yrotation
      JOINT HEad
      {
        OFFSET 0 8.73416 0.011341
        CHANNELS 3 Zrotation Xrotation Yrotation
        End Site
        {
          OFFSET -0.29 12.7742 2.51395
        }
      }
      JOINT LeftShoulder1
      {
        OFFSET 8.99 -0.362252 -0.22
        CHANNELS 3 Zrotation Xrotation Yrotation
        JOINT LeftArm
        {
          OFFSET 10.2827 -0.00338 0.322123
          CHANNELS 3 Zrotation Xrotation Yrotation
          JOINT LeftForeArm
          {
            OFFSET 32.7669 0.099144 -1.42434
            CHANNELS 3 Zrotation Xrotation Yrotation
            JOINT LeftHand
            {
              OFFSET 27.5643 0.085362 1.02216
              CHANNELS 3 Zrotation Xrotation Yrotation
              End Site
              {
                OFFSET 16.7443 -0.6 1.50291
              }
            }
          }
        }
      }
      JOINT RightShoulder
      {
        OFFSET -8.99 -0.362252 -0.22
        CHANNELS 3 Zrotation Xrotation Yrotation
        JOINT RightArm
        {
          OFFSET -10.2827 -0.00338 0.322123
          CHANNELS 3 Zrotation Xrotation Yrotation
          JOINT RightForeArm
          {
            OFFSET -32.8971 0.099144 -1.42434
            CHANNELS 3 Zrotation Xrotation Yrotation
            JOINT RightHand
            {
              OFFSET -27.4921 0.085362 1.02216
              CHANNELS 3 Zrotation Xrotation Yrotation
              End Site
              {
                OFFSET -16.6312 -0.6 1.50291
              }
            }
          }
        }
      }
    }
  }
  JOINT LeftUpLeg
  {
    OFFSET 8.9458 -8.66707 0.101652
    CHANNELS 3 Zrotation Xrotation Yrotation
    JOINT LeftLeg
    {
      OFFSET 0 -44.4227 1.3727
      CHANNELS 3 Zrotation Xrotation Yrotation
      JOINT LeftFoot
      {
        OFFSET -0.253549 -42.0924 -1.46059
        CHANNELS 3 Zrotation Xrotation Yrotation
        JOINT LeftToes
        {
          OFFSET -0.04 -4.41509 8.4991
          CHANNELS 3 Zrotation Xrotation Yrotation
          End Site
          {
            OFFSET 0.08 -0.047448 9.77979
          }
        }
      }
    }
  }
}
MOTION
Frames:	17
Frame Time:	0.0166667
5.20726 101.759 218.46 0.0904164 0.0112607 -179.575 7.12831 13.7776 0.494338 -4.42452 23.2493 -9.64181 5.19425 6.37886 -0.576556 0.0462048 0.000533964 0.662642 0.039108 2.43878 -0.720635 -3.76811 -0.904557 -0.0517268 4.44173 0.263992 -5.71365 -3.4632e-016 0 -0 -87.8275 -33.7207 -12.9018 -17.2359 10.5592 10.6338 0.368473 9.90896 -0.00117926 2.29077 0.0514859 -3.0116 97.9787 -25.6063 24.1651 18.4021 12.9087 4.84166 -0.369625 9.91382 0.00119886 -3.27869 -23.5111 0.0305669 1.41243 21.4358 14.1291 0.128791 4.11431 0.0641082 3.76253e-011 -6.78448e-011 2.10107e-011 
4.89801 101.902 216.369 -0.365348 0.644816 -179.525 6.14488 13.2754 -0.103895 -4.87301 26.4252 -9.30037 6.67522 9.04769 -0.869218 -6.64279 8.12308 7.19267 0.00219433 2.41292 -0.769417 -3.99181 -0.367523 -0.028141 4.1502 0.0908298 -5.56372 -4.67455e-016 3.97569e-016 7.45443e-017 -87.9672 -34.571 -13.2861 -16.8004 10.7071 10.8007 0.368473 9.90896 -0.00117926 1.15857 0.0867507 -2.55865 98.5924 -26.5867 23.1486 18.0521 12.9206 4.93498 -0.369625 9.91382 0.00119886 -4.13473 -21.9046 1.44386 2.13317 22.2301 12.8013 0.352475 3.07693 0.0518994 -1.15099 -4.2688 0.0321499 
4.58208 102.044 214.339 -0.796848 1.16435 -179.601 5.19974 12.3985 -0.669265 -5.46425 29.887 -8.60777 7.93688 11.6086 -1.147 -13.436 16.7844 12.4552 -0.0450621 2.39738 -0.804076 -4.14213 0.044657 -0.0102311 3.82044 -0.0719628 -5.25895 1.13059e-015 -1.98785e-016 -0 -88.087 -35.3662 -13.616 -16.4682 10.832 10.9326 0.368473 9.90896 -0.00117926 0.079672 0.117535 -2.12383 99.1121 -27.4914 22.2229 17.7211 12.9147 4.91087 -0.369625 9.91382 0.00119886 -4.99366 -20.3671 2.56289 2.74789 22.8725 11.8201 0.580281 2.08635 0.0423038 -2.24177 -8.27983 0.0551911 
4.23901 102.181 212.472 -1.17433 1.37237 179.965 4.33691 10.4694 -1.18309 -6.61728 34.2356 -6.55875 8.59536 14.0354 -1.39955 -16.9004 29.0505 14.4945 -0.120167 2.41159 -0.803633 -4.0974 0.117864 -0.00789787 3.40928 -0.241862 -4.45274 -2.67117e-016 -3.97569e-016 2.98177e-016 -88.1174 -36.0482 -13.779 -16.4386 10.899 10.9568 0.368473 9.90896 -0.00117926 -0.916585 0.135334 -1.72749 99.5114 -28.175 21.5666 17.4268 12.8597 4.56936 -0.369625 9.91382 0.00119886 -5.69875 -19.0228 3.07283 3.0744 23.0645 11.7088 0.856856 1.25757 0.0384507 -3.14518 -11.7581 -0.112162 
3.90351 102.312 210.701 -1.47832 1.40516 179.369 3.56613 8.02939 -1.57328 -8.22201 38.7701 -4.34295 8.7885 15.9777 -1.5726 -15.9912 39.9451 12.9362 -0.211724 2.43853 -0.774546 -3.9264 -0.004971 -0.014107 2.89593 -0.325028 -3.56539 1.08089e-015 -1.98785e-016 -1.98785e-016 -88.1063 -36.5878 -13.8347 -16.5211 10.9226 10.9499 0.368473 9.90896 -0.00117926 -1.70201 0.147617 -1.38107 99.6836 -28.7539 21.0649 17.1894 12.7774 4.04115 -0.369625 9.91382 0.00119886 -6.2241 -17.8396 2.92911 3.00013 23.1204 12.3628 1.06746 0.432767 0.0411669 -4.03439 -14.4975 0.0342779 
3.6033 102.425 208.994 -1.66619 1.30975 178.713 2.98583 5.3607 -1.83746 -9.73314 43.0458 -3.11585 8.49859 17.0958 -1.59411 -6.15632 43.8735 2.68437 -0.342434 2.47701 -0.695266 -3.59385 -0.303187 -0.027187 2.12498 -0.158566 -2.97802 -4.96962e-016 0 -3.97569e-016 -88.0839 -36.9547 -13.7419 -16.6012 10.8902 10.9806 0.368473 9.90896 -0.00117926 -2.12217 0.160919 -1.06944 99.421 -29.3195 20.6363 17.0579 12.6785 3.38231 -0.369625 9.91382 0.00119886 -6.47065 -16.8776 1.49471 2.13443 23.3326 14.3257 1.06869 -0.563453 0.0558936 -5.05008 -15.9926 1.28223 
3.33899 102.543 207.344 -1.79122 1.15672 178.046 2.5039 2.56011 -1.77119 -10.9838 47.0121 -2.95993 7.77361 17.3341 -1.48885 5.58932 42.6691 -9.11129 -0.427685 2.49901 -0.628828 -3.29122 -0.624089 -0.0409589 1.4256 0.0348335 -2.46173 -1.92573e-016 -2.98177e-016 3.97569e-016 -88.0486 -37.0895 -13.6988 -16.6517 10.8475 11.0005 0.368473 9.90896 -0.00117926 -2.22707 0.169576 -0.892682 98.9637 -29.8052 20.3494 16.9632 12.565 2.61683 -0.369625 9.91382 0.00119886 -6.50496 -15.9433 0.218949 1.16133 23.401 16.1629 0.991686 -1.56335 0.0719943 -5.90516 -16.8484 2.66148 
3.13213 102.699 205.733 -1.88272 1.0395 177.461 2.11213 -0.184275 -1.0169 -11.3271 50.4742 -5.09397 6.52959 16.2865 -1.22192 11.1023 38.4419 -14.3641 -0.333633 2.46354 -0.659639 -3.26722 -0.782279 -0.0473611 1.19098 0.0352386 -1.87571 9.93923e-017 0 -0 -87.994 -36.9374 -13.9496 -16.5737 10.8528 10.9713 0.368473 9.90896 -0.00117926 -1.9842 0.173056 -0.941383 98.5338 -30.1237 20.3139 16.8362 12.4354 1.73051 -0.369625 9.91382 0.00119886 -6.45261 -14.8565 0.663963 0.783895 23.124 16.2606 0.939881 -2.43861 0.0787019 -6.39455 -17.5453 3.33734 
2.94775 102.856 204.161 -1.95152 0.936739 176.935 1.85694 -2.87094 -0.0211533 -10.9151 53.2652 -7.9438 5.21964 14.6614 -0.925615 13.7919 32.5429 -16.805 -0.230135 2.4085 -0.702063 -3.31388 -0.855207 -0.0503599 1.10379 -0.00438589 -1.33636 1.98785e-016 9.93923e-017 7.95139e-016 -87.9722 -36.4529 -14.3218 -16.468 10.8548 10.9319 0.368473 9.90896 -0.00117926 -1.48658 0.162506 -1.22884 97.9811 -30.4263 20.3262 16.7273 12.3121 0.89353 -0.369625 9.91382 0.00119886 -6.4085 -13.7233 1.75045 0.681847 22.7161 15.6673 0.849912 -3.24633 0.0818002 -6.65396 -18.0122 3.62479 
2.75252 102.986 202.618 -2.05871 0.868515 176.479 1.63278 -5.43406 0.872005 -10.6301 55.2884 -9.30184 4.37255 13.1287 -0.737608 15.6399 26.1334 -18.2194 -0.274455 2.35215 -0.69446 -3.33622 -0.842363 -0.0511847 0.948075 -0.00172431 -0.91503 -1.2424e-017 0 7.95139e-016 -87.9948 -35.5196 -14.6823 -16.4269 10.8055 10.9326 0.368473 9.90896 -0.00117926 -0.769819 0.129348 -1.82585 97.206 -30.8716 20.2296 16.6448 12.2167 0.241763 -0.369625 9.91382 0.00119886 -6.50012 -12.5837 2.97698 0.803516 22.3028 14.9387 0.619496 -4.00361 0.0825627 -6.55386 -18.2389 3.2469 
2.56317 103.097 201.105 -2.0813 0.803874 176.099 1.58887 -7.86646 1.72957 -10.3264 56.5803 -10.2381 3.60743 11.4008 -0.583819 16.7586 19.4857 -18.8641 -0.370022 2.31254 -0.64927 -3.24416 -0.792233 -0.0502402 0.798889 0.0358432 -0.606025 1.36664e-016 0 -7.95139e-016 -88.1525 -34.3016 -15.1537 -16.3769 10.7522 10.9006 0.368473 9.90896 -0.00117926 0.0236676 0.0722491 -2.65048 96.2526 -31.3546 19.9854 16.6577 12.1582 -0.138604 -0.369625 9.91382 0.00119886 -6.57291 -11.4444 4.22672 1.01687 21.8849 13.9431 0.469598 -4.70209 0.0837536 -6.60353 -18.5075 3.16679 
2.38173 103.179 199.62 -1.87184 0.717484 175.814 1.87659 -10.1506 2.4586 -9.93885 57.1059 -11.2033 2.6602 9.30358 -0.427118 17.5349 13.1965 -19.1466 -0.455691 2.3248 -0.547811 -2.85226 -0.751031 -0.0491694 0.643806 0.162215 -0.450548 3.10601e-016 -5.96354e-016 -7.95139e-016 -88.605 -32.9195 -15.8666 -16.2413 10.7223 10.8127 0.368473 9.90896 -0.00117926 0.687531 -0.0161159 -3.68221 95.1211 -31.7912 19.4668 16.8781 12.1581 -0.0603706 -0.369625 9.91382 0.00119886 -6.43837 -10.3278 5.29318 1.22452 21.5235 12.4603 0.711559 -5.32242 0.0899709 -7.54019 -19.2861 4.85437 
2.21901 103.251 198.159 -1.56775 0.612662 175.602 2.33905 -12.2564 3.18207 -9.44927 56.8385 -12.3492 1.72343 7.16475 -0.297813 18.2571 7.17499 -19.319 -0.582986 2.35587 -0.421789 -2.3518 -0.725057 -0.0496145 0.52966 0.275844 -0.379256 2.98177e-016 1.98785e-016 -7.95139e-016 -89.1277 -31.3862 -16.6461 -16.1217 10.7275 10.5699 0.368473 9.90896 -0.00117926 1.37456 -0.125943 -4.80757 93.8311 -32.2731 18.7705 17.1843 12.199 0.309608 -0.369625 9.91382 0.00119886 -6.21721 -9.24209 5.96775 1.28999 21.1644 11.3019 0.972684 -5.91467 0.0970354 -8.40966 -19.9706 6.55906 
2.08252 103.335 196.722 -1.25805 0.483845 175.425 2.90257 -14.153 4.06739 -8.81429 55.7076 -14.0479 0.910723 5.21966 -0.219384 19.2404 1.36922 -19.726 -0.790444 2.38461 -0.292347 -1.86214 -0.732876 -0.0525963 0.479803 0.238546 -0.295292 2.48481e-017 1.98785e-016 -0 -89.5787 -29.7807 -17.3499 -16.096 10.8018 10.0213 0.368473 9.90896 -0.00117926 2.17595 -0.24882 -5.90264 92.3868 -32.8753 17.9357 17.4989 12.2773 0.920586 -0.369625 9.91382 0.00119886 -5.92936 -8.18595 5.7774 0.966986 20.7739 11.5023 0.938377 -6.52944 0.103362 -8.46064 -19.9747 6.68624 
1.98428 103.405 195.293 -0.940443 0.332281 175.358 3.52416 -15.8211 4.89003 -8.20034 53.7571 -15.9886 0.171595 3.57092 -0.170949 20.1277 -3.59073 -20.1555 -1.05541 2.41045 -0.172514 -1.41347 -0.783901 -0.0569898 0.553924 0.214123 -0.32239 4.47266e-016 -1.98785e-016 1.59028e-015 -89.9381 -28.0276 -18.0507 -16.1544 10.9043 9.29915 0.368473 9.90896 -0.00117926 3.07476 -0.387811 -6.9783 90.8243 -33.5657 17.0051 17.7949 12.3686 1.61283 -0.369625 9.91382 0.00119886 -5.59715 -7.19999 5.31947 0.581796 20.4352 12.1438 0.745215 -7.14578 0.105739 -8.20235 -19.8734 6.10998 
1.94759 103.444 193.853 -0.652291 0.151459 175.481 4.1008 -17.235 5.43433 -7.76476 50.9884 -18.1727 -0.562283 2.45355 -0.140718 20.6342 -6.94722 -20.3238 -1.39067 2.42764 -0.0839186 -1.0963 -0.918012 -0.0624079 0.852842 0.393518 -0.586016 3.97569e-016 1.98785e-016 -7.95139e-016 -90.1022 -26.051 -18.7658 -16.3346 11.0036 8.46629 0.368473 9.90896 -0.00117926 4.10836 -0.540129 -7.97679 89.1446 -34.3772 15.998 18.0165 12.4518 2.22281 -0.369625 9.91382 0.00119886 -5.32344 -6.34277 5.06045 0.376868 20.1964 12.8065 0.305786 -7.77083 0.0949912 -7.6978 -20.0624 4.75441 
1.94612 103.443 192.42 -0.359289 -0.0412829 175.743 4.64155 -18.4013 5.80951 -7.51554 47.5064 -20.1092 -1.1154 1.70551 -0.127107 21.0837 -9.19912 -20.4916 -1.72801 2.43059 -0.0219212 -0.849106 -1.06237 -0.0679123 1.27887 0.557073 -0.984141 -9.93923e-017 -5.96354e-016 -0 -90.1555 -23.9372 -19.5208 -16.5748 11.1061 7.58016 0.368473 9.90896 -0.00117926 5.20627 -0.714949 -8.98016 87.4636 -35.194 15.0275 18.1809 12.5181 2.70948 -0.369625 9.91382 0.00119886 -5.03843 -5.57156 4.8939 0.273978 20.1026 13.0588 -0.023274 -8.37102 0.0873258 -7.4694 -20.4397 3.89642 
